<svg width="67" height="35" viewBox="0 0 67 35" fill="none" xmlns="http://www.w3.org/2000/svg">
<path d="M32.5167 5C24.1 5 16.9122 10.2352 14 17.625C16.9122 25.0148 24.1 30.25 32.5167 30.25C40.9333 30.25 48.1212 25.0148 51.0333 17.625C48.1212 10.2352 40.9333 5 32.5167 5ZM32.5167 26.0417C27.8707 26.0417 24.1 22.271 24.1 17.625C24.1 12.979 27.8707 9.20833 32.5167 9.20833C37.1627 9.20833 40.9333 12.979 40.9333 17.625C40.9333 22.271 37.1627 26.0417 32.5167 26.0417ZM32.5167 12.575C29.7223 12.575 27.4667 14.8307 27.4667 17.625C27.4667 20.4193 29.7223 22.675 32.5167 22.675C35.311 22.675 37.5667 20.4193 37.5667 17.625C37.5667 14.8307 35.311 12.575 32.5167 12.575Z" fill="#C4C4C4"/>
<rect x="0.5" y="0.5" width="65.7442" height="34" rx="4.5" stroke="black"/>
</svg>
